# xmcd CD database file
#
# Track frame offsets:
#	150
#	36010
#	67962
#	93337
#	122082
#	152882
#	174005
#	202827
#	230315
#	262215
#	286652
#
# Disc length: 4089 seconds
#
# Revision: 0
# Processed by: cddbd v1.5.1PL2 Copyright (c) Steve Scherf et al.
# Submitted via: CDex 1.51
#
DISCID=880ff70b
DTITLE=Harry Allen and Scott Hamilton - Swing Brothers (Japan)
DYEAR=2005
DGENRE=Jazz
TTITLE0=My Lean Baby
TTITLE1=Flying Home
TTITLE2=Danny Boy
TTITLE3=Shiny Stockings
TTITLE4=Crazy Rythym
TTITLE5=A Nightingale Sang In Berkley Square
TTITLE6=The Way You Look Tonight
TTITLE7=One O'Clock Jump
TTITLE8=Love Is Just Around The Corner
TTITLE9=Cotton Tail
TTITLE10=Love Light
EXTD=YEAR: 2005
EXTT0=
EXTT1=
EXTT2=
EXTT3=
EXTT4=
EXTT5=
EXTT6=
EXTT7=
EXTT8=
EXTT9=
EXTT10=
PLAYORDER=
